<svg width="262" height="30" viewBox="0 0 262 30" fill="none" xmlns="http://www.w3.org/2000/svg">
<path d="M22.32 14.4C23.92 14.96 25.1733 15.84 26.08 17.04C26.9867 18.2133 27.44 19.64 27.44 21.32C27.44 23.7733 26.4533 25.6667 24.48 27C22.5067 28.3333 19.6533 29 15.92 29H0.8V0.999998H15.12C18.6933 0.999998 21.4133 1.66666 23.28 3C25.1467 4.30667 26.08 6.08 26.08 8.32C26.08 9.65333 25.7467 10.8533 25.08 11.92C24.44 12.96 23.52 13.7867 22.32 14.4ZM8.64 6.72V12.12H14.08C16.7467 12.12 18.08 11.2133 18.08 9.4C18.08 7.61333 16.7467 6.72 14.08 6.72H8.64ZM15.28 23.28C18.0533 23.28 19.44 22.3333 19.44 20.44C19.44 18.5467 18.0533 17.6 15.28 17.6H8.64V23.28H15.28ZM31.5422 0.999998H39.4622V22.72H52.8222V29H31.5422V0.999998ZM75.0288 23.56H63.1888L60.9888 29H52.9087L65.2688 0.999998H73.0688L85.4688 29H77.2288L75.0288 23.56ZM72.7088 17.72L69.1088 8.76L65.5088 17.72H72.7088ZM101.283 29.56C98.3501 29.56 95.7101 28.9467 93.3634 27.72C91.0434 26.4667 89.2168 24.7333 87.8834 22.52C86.5501 20.3067 85.8834 17.8 85.8834 15C85.8834 12.2 86.5501 9.69333 87.8834 7.48C89.2168 5.26666 91.0434 3.54666 93.3634 2.32C95.7101 1.06666 98.3501 0.439998 101.283 0.439998C103.843 0.439998 106.15 0.893332 108.203 1.8C110.257 2.70667 111.963 4.01333 113.323 5.72L108.283 10.28C106.47 8.09333 104.27 7 101.683 7C100.163 7 98.8034 7.33333 97.6034 8C96.4301 8.66667 95.5101 9.61333 94.8434 10.84C94.2034 12.04 93.8834 13.4267 93.8834 15C93.8834 16.5733 94.2034 17.9733 94.8434 19.2C95.5101 20.4 96.4301 21.3333 97.6034 22C98.8034 22.6667 100.163 23 101.683 23C104.27 23 106.47 21.9067 108.283 19.72L113.323 24.28C111.963 25.9867 110.257 27.2933 108.203 28.2C106.15 29.1067 103.843 29.56 101.283 29.56ZM127.655 18.84L124.695 22V29H116.855V0.999998H124.695V12.64L135.535 0.999998H144.255L132.815 13.4L144.855 29H135.655L127.655 18.84Z" fill="black"/>
<path d="M165.693 23.56H153.853L151.653 29H143.573L155.933 0.999998H163.733L176.133 29H167.893L165.693 23.56ZM163.373 17.72L159.773 8.76L156.173 17.72H163.373ZM205.216 0.999998L193.216 29H185.416L173.456 0.999998H182.016L189.616 19.24L197.376 0.999998H205.216ZM212.737 7.28H204.137V0.999998H229.217V7.28H220.657V29H212.737V7.28ZM245.897 29.56C242.937 29.56 240.27 28.9333 237.897 27.68C235.55 26.4267 233.697 24.6933 232.337 22.48C231.003 20.2667 230.337 17.7733 230.337 15C230.337 12.2267 231.003 9.73333 232.337 7.52C233.697 5.30667 235.55 3.57333 237.897 2.32C240.27 1.06666 242.937 0.439998 245.897 0.439998C248.857 0.439998 251.51 1.06666 253.857 2.32C256.23 3.57333 258.083 5.30667 259.417 7.52C260.777 9.73333 261.457 12.2267 261.457 15C261.457 17.7733 260.777 20.2667 259.417 22.48C258.083 24.6933 256.23 26.4267 253.857 27.68C251.51 28.9333 248.857 29.56 245.897 29.56ZM245.897 23C247.31 23 248.59 22.6667 249.737 22C250.883 21.3333 251.79 20.4 252.457 19.2C253.123 17.9733 253.457 16.5733 253.457 15C253.457 13.4267 253.123 12.04 252.457 10.84C251.79 9.61333 250.883 8.66667 249.737 8C248.59 7.33333 247.31 7 245.897 7C244.483 7 243.203 7.33333 242.057 8C240.91 8.66667 240.003 9.61333 239.337 10.84C238.67 12.04 238.337 13.4267 238.337 15C238.337 16.5733 238.67 17.9733 239.337 19.2C240.003 20.4 240.91 21.3333 242.057 22C243.203 22.6667 244.483 23 245.897 23Z" fill="#C82F00"/>
</svg>
